<svg width="36" height="36" viewBox="0 0 36 36" xmlns="http://www.w3.org/2000/svg" xmlns:sketch="http://www.bohemiancoding.com/sketch/ns"><title>googleplus</title><desc>Created with Sketch.</desc><path d="M18 0c-9.941 0-18 8.059-18 18s8.059 18 18 18 18-8.059 18-18-8.059-18-18-18zm.693 14.691c0 .909-.504 1.755-1.215 2.311-.695.543-.826.77-.826 1.231 0 .394.744 1.063 1.133 1.339 1.136.804 1.504 1.55 1.504 2.796 0 1.554-1.504 3.1-4.229 3.1-2.389 0-4.406-.973-4.406-2.527 0-1.578 1.84-3.102 4.229-3.102l.746-.009c-.327-.318-.586-.713-.586-1.193 0-.286.092-.569.219-.813l-.399-.007c-1.963 0-3.278-1.433-3.278-3.163 0-1.693 1.816-3.228 3.745-3.228h4.303l-.963.715h-1.364c.905.715 1.387 1.468 1.387 2.55zm8.228.31h-2.86v2.861h-.715v-2.861h-2.86v-.715h2.86v-2.86h.715v2.86h2.86v.715zm-11.583 5.241c-1.651-.018-3.131 1.007-3.131 2.238 0 1.256 1.193 2.301 2.845 2.301 2.322 0 3.131-.981 3.131-2.237 0-.152-.019-.3-.053-.444-.181-.711-.824-1.063-1.721-1.686-.326-.106-.685-.168-1.071-.172zm-.546-8.06c-1.108-.033-1.851 1.082-1.66 2.538.191 1.455 1.245 2.662 2.354 2.696 1.108.033 1.851-1.12 1.66-2.576-.191-1.456-1.245-2.624-2.354-2.658z" sketch:type="MSShapeGroup" fill="#9DA7B0"/></svg>