<svg width="36" height="36" viewBox="0 0 36 36" xmlns="http://www.w3.org/2000/svg" xmlns:sketch="http://www.bohemiancoding.com/sketch/ns"><title>twitter</title><desc>Created with Sketch.</desc><path d="M36 18c0 9.941-8.059 18-18 18s-18-8.059-18-18 8.059-18 18-18 18 8.059 18 18zm-9.698-4.788c-.568.252-1.178.422-1.819.499.654-.392 1.157-1.013 1.393-1.753-.612.363-1.29.627-2.011.769-.578-.616-1.401-1-2.312-1-1.75 0-3.168 1.418-3.168 3.167 0 .248.028.49.082.722-2.632-.132-4.966-1.393-6.528-3.309-.272.467-.429 1.011-.429 1.592 0 1.099.559 2.068 1.409 2.636-.519-.016-1.007-.159-1.434-.396l-.001.04c0 1.534 1.092 2.815 2.541 3.105-.266.073-.546.112-.834.112-.205 0-.403-.02-.596-.057.403 1.258 1.572 2.174 2.958 2.199-1.084.85-2.449 1.356-3.933 1.356-.256 0-.508-.015-.756-.044 1.402.898 3.067 1.423 4.856 1.423 5.825 0 9.011-4.826 9.011-9.012l-.009-.41c.619-.446 1.156-1.004 1.58-1.639z" sketch:type="MSShapeGroup" fill="#9DA7B0"/></svg>